<?xml version="1.0" standalone="no"?>
<!DOCTYPE svg PUBLIC "-//W3C//DTD SVG 20010904//EN"
 "http://www.w3.org/TR/2001/REC-SVG-20010904/DTD/svg10.dtd">
<svg version="1.0" xmlns="http://www.w3.org/2000/svg"
 width="400.000000pt" height="400.000000pt" viewBox="0 0 400.000000 400.000000"
 preserveAspectRatio="xMidYMid meet">
<metadata>
Created by potrace 1.14, written by Peter Selinger 2001-2017
</metadata>
<g transform="translate(0.000000,400.000000) scale(0.100000,-0.100000)"
fill="#000000" stroke="none">
<path d="M2021 3275 c-41 -47 -78 -85 -83 -85 -6 0 -45 32 -88 70 -43 39 -80
70 -83 70 -3 0 -29 -44 -58 -97 -29 -54 -54 -100 -56 -102 -2 -3 -48 17 -103
44 -55 27 -101 47 -103 44 -2 -2 -17 -55 -32 -116 -15 -62 -29 -113 -30 -113
-2 0 -47 9 -100 20 -148 30 -135 40 -135 -99 l0 -118 -61 -7 c-34 -3 -83 -6
-108 -6 -74 0 -74 -2 -41 -120 16 -58 26 -108 22 -111 -4 -4 -54 -20 -111 -38
-58 -17 -106 -32 -107 -34 -2 -2 21 -45 51 -97 30 -52 55 -97 55 -100 0 -3
-45 -32 -100 -65 l-100 -60 82 -82 83 -83 -84 -84 -83 -84 96 -57 c53 -32 99
-62 102 -66 3 -5 -20 -50 -50 -101 -31 -51 -52 -95 -48 -99 4 -3 55 -21 115
-39 85 -26 106 -37 102 -49 -25 -82 -52 -202 -47 -205 4 -2 58 -7 120 -11
l112 -8 0 -118 c0 -65 3 -120 8 -122 4 -3 56 4 116 15 79 15 110 18 115 9 4
-6 18 -58 31 -116 12 -58 25 -105 27 -105 2 0 49 23 104 51 56 27 102 49 104
47 1 -2 26 -49 54 -106 l52 -103 28 20 c15 11 34 27 41 36 7 9 35 34 61 56
l48 40 38 -43 c21 -23 56 -63 79 -87 l41 -44 63 92 c34 50 66 93 69 96 4 2 46
-23 94 -56 47 -32 90 -59 95 -59 5 0 24 42 42 93 51 142 35 132 151 91 56 -20
104 -32 109 -28 4 5 13 56 20 114 6 58 15 108 18 112 4 4 58 4 120 0 63 -4
115 -5 117 -2 1 3 -3 55 -10 115 -7 61 -11 113 -9 116 2 3 52 14 111 24 59 10
111 20 115 24 4 3 -13 52 -37 109 l-43 102 31 14 c18 8 66 28 107 46 41 18 77
34 79 36 2 1 -29 44 -68 95 l-71 91 90 70 c50 38 90 73 90 77 0 4 -40 38 -89
75 l-90 68 35 46 c18 26 50 68 70 95 l36 47 -38 16 c-22 9 -71 31 -111 49
l-72 33 45 103 c24 56 43 104 41 106 -2 1 -55 12 -118 24 -62 11 -114 21 -116
22 -2 2 12 128 22 201 l6 38 -124 -7 -124 -7 -13 113 c-6 63 -14 117 -16 121
-2 4 -50 -9 -106 -28 -56 -19 -105 -34 -108 -34 -3 0 -23 48 -44 108 -22 59
-40 108 -42 110 -1 2 -43 -24 -93 -57 -50 -34 -94 -61 -99 -61 -5 0 -38 43
-72 95 -34 52 -63 95 -65 95 -1 0 -34 -38 -74 -85z m-117 -483 c79 -55 115
-156 216 -603 101 -447 128 -550 160 -616 40 -80 77 -108 147 -108 67 0 98 28
120 107 21 75 43 78 43 6 0 -149 -83 -268 -188 -268 -42 0 -124 45 -149 82
-33 50 -67 162 -118 393 -25 116 -49 218 -53 228 -7 17 -126 -238 -283 -605
l-33 -78 -98 0 -97 0 28 63 c16 34 71 154 124 267 52 113 140 303 195 422
l101 217 -24 93 c-43 168 -91 247 -165 269 -33 10 -44 9 -84 -10 -52 -26 -82
-68 -92 -129 -5 -32 -11 -42 -23 -40 -33 7 -6 157 43 241 33 55 55 75 103 93
47 17 76 11 127 -24z"/>
</g>
</svg>
